<svg xmlns="http://www.w3.org/2000/svg" viewBox="0 0 220 420" fill="none">
<g stroke="#000" stroke-width="1.1" stroke-linecap="round" stroke-linejoin="round">
<path d="M132,415 C68,296 150,158 86,10"/>
<path d="M122.3,394.2 C131.6,390.8 133.4,380.8 133.6,375.3 C128.9,378.1 121.0,384.4 122.3,394.2 Z"/>
<path d="M122.3,394.2 L133.6,375.3" stroke-opacity="0.55"/>
<path d="M122.4,394.4 C116.0,386.2 105.9,388.4 100.6,390.4 C104.9,394.1 113.5,399.8 122.4,394.4 Z"/>
<path d="M122.4,394.4 L100.6,390.4" stroke-opacity="0.55"/>
<path d="M117.5,380.6 C130.4,375.6 133.1,361.6 133.6,353.9 C127.0,357.9 115.8,366.8 117.5,380.6 Z"/>
<path d="M117.5,380.6 L133.6,353.9" stroke-opacity="0.55"/>
<path d="M117.4,380.3 C111.7,368.9 99.2,369.6 92.4,370.9 C96.6,376.4 105.6,385.2 117.4,380.3 Z"/>
<path d="M117.4,380.3 L92.4,370.9" stroke-opacity="0.55"/>
<path d="M113.4,365.8 C127.4,362.9 131.6,349.0 132.9,341.2 C125.5,344.2 113.0,351.5 113.4,365.8 Z"/>
<path d="M113.4,365.8 L132.9,341.2" stroke-opacity="0.55"/>
<path d="M113.6,366.9 C104.7,350.9 86.1,350.9 76.1,352.3 C82.6,360.1 96.3,372.6 113.6,366.9 Z"/>
<path d="M113.6,366.9 L76.1,352.3" stroke-opacity="0.55"/>
<path d="M110.8,354.0 C130.3,352.5 137.3,334.4 139.7,324.0 C129.4,326.8 111.5,334.5 110.8,354.0 Z"/>
<path d="M110.8,354.0 L139.7,324.0" stroke-opacity="0.55"/>
<path d="M110.5,352.4 C103.7,335.7 86.0,335.5 76.3,336.7 C81.7,344.9 93.4,358.1 110.5,352.4 Z"/>
<path d="M110.5,352.4 L76.3,336.7" stroke-opacity="0.55"/>
<path d="M108.7,341.0 C131.3,338.1 141.1,316.8 145.0,304.7 C132.9,308.5 111.5,318.4 108.7,341.0 Z"/>
<path d="M108.7,341.0 L145.0,304.7" stroke-opacity="0.55"/>
<path d="M108.6,339.7 C99.8,316.3 74.9,313.2 61.1,313.4 C68.3,325.1 84.1,344.7 108.6,339.7 Z"/>
<path d="M108.6,339.7 L61.1,313.4" stroke-opacity="0.55"/>
<path d="M107.1,326.1 C133.9,329.5 147.2,306.6 152.7,293.0 C138.1,294.0 112.2,299.5 107.1,326.1 Z"/>
<path d="M107.1,326.1 L152.7,293.0" stroke-opacity="0.55"/>
<path d="M107.2,327.3 C101.6,303.1 77.5,297.9 63.9,296.9 C69.5,309.3 82.5,330.2 107.2,327.3 Z"/>
<path d="M107.2,327.3 L63.9,296.9" stroke-opacity="0.55"/>
<path d="M106.2,312.3 C132.0,315.7 147.6,294.4 154.4,281.8 C140.1,282.6 114.2,287.5 106.2,312.3 Z"/>
<path d="M106.2,312.3 L154.4,281.8" stroke-opacity="0.55"/>
<path d="M106.2,311.7 C102.2,286.2 77.7,279.6 63.8,277.8 C68.6,291.0 80.5,313.4 106.2,311.7 Z"/>
<path d="M106.2,311.7 L63.8,277.8" stroke-opacity="0.55"/>
<path d="M105.9,298.7 C127.3,297.7 137.8,278.3 142.1,267.1 C130.5,269.8 109.8,277.5 105.9,298.7 Z"/>
<path d="M105.9,298.7 L142.1,267.1" stroke-opacity="0.55"/>
<path d="M105.9,299.1 C98.1,275.5 73.5,271.9 59.9,271.9 C66.5,283.8 81.5,303.6 105.9,299.1 Z"/>
<path d="M105.9,299.1 L59.9,271.9" stroke-opacity="0.55"/>
<path d="M105.9,284.1 C127.1,284.9 138.9,266.6 143.9,255.9 C132.3,257.6 111.3,263.6 105.9,284.1 Z"/>
<path d="M105.9,284.1 L143.9,255.9" stroke-opacity="0.55"/>
<path d="M105.9,283.3 C101.4,263.0 81.3,258.3 70.0,257.3 C74.5,267.7 85.3,285.4 105.9,283.3 Z"/>
<path d="M105.9,283.3 L70.0,257.3" stroke-opacity="0.55"/>
<path d="M106.3,269.7 C127.2,272.1 140.5,255.0 146.4,244.9 C134.7,245.7 113.5,250.0 106.3,269.7 Z"/>
<path d="M106.3,269.7 L146.4,244.9" stroke-opacity="0.55"/>
<path d="M106.3,269.4 C104.2,249.3 85.3,242.4 74.5,240.1 C77.7,250.6 86.2,268.9 106.3,269.4 Z"/>
<path d="M106.3,269.4 L74.5,240.1" stroke-opacity="0.55"/>
<path d="M107.0,254.7 C128.5,256.7 139.2,238.2 143.6,227.3 C131.9,228.5 111.1,233.5 107.0,254.7 Z"/>
<path d="M107.0,254.7 L143.6,227.3" stroke-opacity="0.55"/>
<path d="M107.1,254.0 C103.2,234.7 84.2,227.8 73.4,225.4 C77.5,235.6 87.4,253.4 107.1,254.0 Z"/>
<path d="M107.1,254.0 L73.4,225.4" stroke-opacity="0.55"/>
<path d="M107.9,240.4 C125.8,243.8 136.3,229.1 140.9,220.3 C130.9,220.3 113.0,222.9 107.9,240.4 Z"/>
<path d="M107.9,240.4 L140.9,220.3" stroke-opacity="0.55"/>
<path d="M108.0,238.7 C104.8,220.4 86.9,215.1 76.9,213.6 C80.5,223.1 89.4,239.4 108.0,238.7 Z"/>
<path d="M108.0,238.7 L76.9,213.6" stroke-opacity="0.55"/>
<path d="M108.9,225.4 C125.0,225.9 134.1,211.9 138.1,203.8 C129.2,205.2 113.2,209.8 108.9,225.4 Z"/>
<path d="M108.9,225.4 L138.1,203.8" stroke-opacity="0.55"/>
<path d="M108.8,225.8 C107.5,208.4 91.3,201.8 82.0,199.4 C84.5,208.7 91.4,224.8 108.8,225.8 Z"/>
<path d="M108.8,225.8 L82.0,199.4" stroke-opacity="0.55"/>
<path d="M109.8,210.4 C123.9,213.3 132.4,201.9 136.2,195.1 C128.4,195.0 114.3,196.8 109.8,210.4 Z"/>
<path d="M109.8,210.4 L136.2,195.1" stroke-opacity="0.55"/>
<path d="M109.8,211.6 C108.1,196.5 93.9,191.9 85.8,190.4 C88.3,198.3 94.7,211.8 109.8,211.6 Z"/>
<path d="M109.8,211.6 L85.8,190.4" stroke-opacity="0.55"/>
<path d="M110.7,197.2 C125.6,198.3 133.3,185.5 136.5,177.9 C128.4,178.9 113.8,182.5 110.7,197.2 Z"/>
<path d="M110.7,197.2 L136.5,177.9" stroke-opacity="0.55"/>
<path d="M110.7,195.8 C109.0,183.3 97.1,180.0 90.4,179.1 C92.6,185.5 98.2,196.5 110.7,195.8 Z"/>
<path d="M110.7,195.8 L90.4,179.1" stroke-opacity="0.55"/>
<path d="M111.5,180.7 C124.2,182.0 130.8,171.1 133.5,164.7 C126.6,165.3 114.2,168.2 111.5,180.7 Z"/>
<path d="M111.5,180.7 L133.5,164.7" stroke-opacity="0.55"/>
<path d="M111.5,180.9 C107.9,168.5 95.1,165.7 87.9,165.1 C91.2,171.5 98.6,182.3 111.5,180.9 Z"/>
<path d="M111.5,180.9 L87.9,165.1" stroke-opacity="0.55"/>
<path d="M112.0,164.5 C124.3,164.8 130.3,153.9 132.8,147.6 C126.1,148.8 114.3,152.5 112.0,164.5 Z"/>
<path d="M112.0,164.5 L132.8,147.6" stroke-opacity="0.55"/>
<path d="M111.9,167.0 C109.9,155.8 98.9,151.4 92.8,149.8 C95.0,155.8 100.6,166.2 111.9,167.0 Z"/>
<path d="M111.9,167.0 L92.8,149.8" stroke-opacity="0.55"/>
<path d="M112.2,149.3 C122.6,149.8 127.7,140.7 129.8,135.4 C124.1,136.2 114.1,139.0 112.2,149.3 Z"/>
<path d="M112.2,149.3 L129.8,135.4" stroke-opacity="0.55"/>
<path d="M112.2,149.8 C108.6,141.0 98.9,139.2 93.7,139.0 C96.5,143.4 102.8,151.0 112.2,149.8 Z"/>
<path d="M112.2,149.8 L93.7,139.0" stroke-opacity="0.55"/>
<path d="M111.9,135.0 C119.7,135.7 124.2,129.1 126.1,125.2 C121.8,125.7 114.1,127.5 111.9,135.0 Z"/>
<path d="M111.9,135.0 L126.1,125.2" stroke-opacity="0.55"/>
<path d="M112.0,136.7 C110.6,128.0 102.2,125.7 97.5,125.1 C99.1,129.6 103.2,137.3 112.0,136.7 Z"/>
<path d="M112.0,136.7 L97.5,125.1" stroke-opacity="0.55"/>
<path d="M111.2,118.5 C118.5,118.9 122.7,112.6 124.5,108.9 C120.5,109.4 113.1,111.3 111.2,118.5 Z"/>
<path d="M111.2,118.5 L124.5,108.9" stroke-opacity="0.55"/>
<path d="M111.3,120.7 C109.3,114.6 102.9,113.2 99.3,112.9 C101.0,116.0 104.9,121.3 111.3,120.7 Z"/>
<path d="M111.3,120.7 L99.3,112.9" stroke-opacity="0.55"/>
<path d="M110.1,105.4 C116.0,105.5 119.2,100.3 120.6,97.3 C117.3,97.9 111.5,99.7 110.1,105.4 Z"/>
<path d="M110.1,105.4 L120.6,97.3" stroke-opacity="0.55"/>
<path d="M109.8,103.1 C107.8,96.5 101.0,95.9 97.3,96.1 C99.1,99.3 103.2,104.7 109.8,103.1 Z"/>
<path d="M109.8,103.1 L97.3,96.1" stroke-opacity="0.55"/>
<path d="M108.1,88.9 C112.9,89.0 114.9,84.7 115.6,82.2 C113.1,82.6 108.6,84.1 108.1,88.9 Z"/>
<path d="M108.1,88.9 L115.6,82.2" stroke-opacity="0.55"/>
<path d="M107.9,87.4 C106.0,82.7 101.1,82.4 98.4,82.6 C99.8,84.9 103.0,88.7 107.9,87.4 Z"/>
<path d="M107.9,87.4 L98.4,82.6" stroke-opacity="0.55"/>
<path d="M105.7,74.4 C109.4,73.7 110.7,70.0 111.1,67.9 C109.2,68.7 105.8,70.6 105.7,74.4 Z"/>
<path d="M105.7,74.4 L111.1,67.9" stroke-opacity="0.55"/>
<path d="M105.5,73.5 C103.9,69.9 99.9,69.9 97.8,70.2 C99.1,71.9 101.7,74.8 105.5,73.5 Z"/>
<path d="M105.5,73.5 L97.8,70.2" stroke-opacity="0.55"/>
<path d="M101.9,57.2 C104.3,56.9 105.1,54.6 105.3,53.3 C104.1,53.7 101.9,54.7 101.9,57.2 Z"/>
<path d="M101.9,57.2 L105.3,53.3" stroke-opacity="0.55"/>
<path d="M101.9,57.3 C100.7,54.8 97.9,54.8 96.3,55.0 C97.3,56.2 99.3,58.1 101.9,57.3 Z"/>
<path d="M101.9,57.3 L96.3,55.0" stroke-opacity="0.55"/>
<path d="M97.2,40.2 C98.9,39.8 99.4,38.1 99.5,37.1 C98.6,37.5 97.1,38.4 97.2,40.2 Z"/>
<path d="M97.2,40.2 L99.5,37.1" stroke-opacity="0.55"/>
<path d="M98.0,42.8 C97.2,41.2 95.4,41.2 94.5,41.4 C95.0,42.1 96.3,43.4 98.0,42.8 Z"/>
<path d="M98.0,42.8 L94.5,41.4" stroke-opacity="0.55"/>
<path d="M92.4,26.1 C93.6,25.8 93.8,24.6 93.8,24.0 C93.2,24.3 92.2,24.9 92.4,26.1 Z"/>
<path d="M92.4,26.1 L93.8,24.0" stroke-opacity="0.55"/>
<path d="M92.6,26.5 C92.1,25.7 91.2,25.8 90.7,26.0 C91.0,26.3 91.7,26.9 92.6,26.5 Z"/>
<path d="M92.6,26.5 L90.7,26.0" stroke-opacity="0.55"/>
</g></svg>