<svg xmlns="http://www.w3.org/2000/svg" viewBox="0 0 200 420" fill="none">
<g stroke="#000" stroke-width="1.1" stroke-linecap="round" stroke-linejoin="round">
<path d="M100,415 C86,320 74,210 66,96"/>
<path d="M88.0,325.7 C97.0,317.5 99.6,303.8 100.3,296.5 C95.6,302.1 87.6,313.5 88.0,325.7 Z"/>
<path d="M88.0,325.7 L100.3,296.5" stroke-opacity="0.5"/>
<path d="M80.1,256.2 C77.4,242.8 65.7,232.3 59.2,227.4 C61.9,235.1 68.2,249.4 80.1,256.2 Z"/>
<path d="M80.1,256.2 L59.2,227.4" stroke-opacity="0.5"/>
<path d="M73.6,190.6 C81.6,183.7 84.2,171.9 85.1,165.6 C80.9,170.3 73.6,180.0 73.6,190.6 Z"/>
<path d="M73.6,190.6 L85.1,165.6" stroke-opacity="0.5"/>
<path d="M66.0,96.0 C71.4,106.2 83.6,109.1 90.2,110.0 C86.1,104.6 77.5,95.6 66.0,96.0 Z"/>
<path d="M66.0,96.0 C65.8,107.1 74.8,115.2 80.0,118.9 C79.0,112.6 75.9,100.9 66.0,96.0 Z"/>
<path d="M66.0,96.0 C62.6,105.2 67.7,114.6 70.9,119.2 C71.9,113.7 72.8,103.1 66.0,96.0 Z"/>
<path d="M66.0,96.0 C58.1,102.8 58.0,114.2 58.6,120.1 C62.5,115.5 68.7,106.1 66.0,96.0 Z"/>
<path d="M66.0,96.0 C54.6,98.6 48.6,109.8 46.1,116.1 C52.3,113.5 63.4,107.4 66.0,96.0 Z"/>
<path d="M66.0,96.0 C54.1,94.0 44.0,102.4 39.1,107.3 C46.1,107.3 59.1,105.9 66.0,96.0 Z"/>
<path d="M66.0,96.0 C58.5,90.5 48.6,92.6 43.6,94.3 C48.3,96.8 57.8,100.4 66.0,96.0 Z"/>
<path d="M66.0,96.0 C61.0,86.3 49.5,83.5 43.3,82.6 C47.0,87.7 55.1,96.3 66.0,96.0 Z"/>
<path d="M66.0,96.0 C64.9,85.0 55.2,78.1 49.6,74.9 C51.3,81.1 55.6,92.2 66.0,96.0 Z"/>
<path d="M66.0,96.0 C70.6,86.5 66.1,76.1 63.2,70.8 C61.5,76.6 59.5,87.8 66.0,96.0 Z"/>
<path d="M66.0,96.0 C74.1,89.3 74.4,78.0 73.9,71.9 C69.9,76.5 63.5,85.8 66.0,96.0 Z"/>
<path d="M66.0,96.0 C75.4,93.3 80.0,83.7 81.8,78.4 C76.7,80.8 67.7,86.4 66.0,96.0 Z"/>
<path d="M66.0,96.0 C75.0,98.2 83.3,92.4 87.4,88.9 C82.0,88.5 71.9,88.8 66.0,96.0 Z"/>
<path d="M66.0,96.0 C74.6,102.5 86.0,100.2 92.0,98.3 C86.5,95.4 75.6,91.1 66.0,96.0 Z"/>
<circle cx="66.0" cy="96.0" r="4.4"/>
<path d="M100,415 C110,320 132,232 140,150"/>
<path d="M111.5,331.4 C122.0,326.2 128.1,314.2 130.8,307.7 C124.9,311.6 114.5,320.0 111.5,331.4 Z"/>
<path d="M111.5,331.4 L130.8,307.7" stroke-opacity="0.5"/>
<path d="M121.7,272.3 C122.4,262.9 116.7,253.8 113.4,249.3 C113.6,254.9 115.1,265.6 121.7,272.3 Z"/>
<path d="M121.7,272.3 L113.4,249.3" stroke-opacity="0.5"/>
<path d="M130.6,220.3 C140.7,215.3 146.6,203.7 149.2,197.3 C143.5,201.2 133.4,209.3 130.6,220.3 Z"/>
<path d="M130.6,220.3 L149.2,197.3" stroke-opacity="0.5"/>
<path d="M140.0,150.0 C133.2,155.4 132.7,164.9 133.1,169.9 C136.4,166.2 142.0,158.5 140.0,150.0 Z"/>
<path d="M140.0,150.0 C131.7,152.6 127.8,161.3 126.3,166.1 C130.8,163.8 138.8,158.6 140.0,150.0 Z"/>
<path d="M140.0,150.0 C132.1,148.3 125.0,153.5 121.6,156.7 C126.3,156.9 135.0,156.4 140.0,150.0 Z"/>
<path d="M140.0,150.0 C133.6,145.2 125.1,147.0 120.7,148.5 C124.8,150.6 132.9,153.7 140.0,150.0 Z"/>
<path d="M140.0,150.0 C136.2,142.8 127.7,140.8 123.0,140.2 C125.8,143.9 131.9,150.3 140.0,150.0 Z"/>
<path d="M140.0,150.0 C140.4,140.5 132.8,133.4 128.5,130.1 C129.2,135.5 131.6,145.6 140.0,150.0 Z"/>
<path d="M140.0,150.0 C142.9,142.5 138.9,134.8 136.4,130.9 C135.4,135.4 134.5,144.1 140.0,150.0 Z"/>
<path d="M140.0,150.0 C147.3,144.2 147.7,134.1 147.4,128.8 C143.8,132.8 137.9,140.9 140.0,150.0 Z"/>
<path d="M140.0,150.0 C147.7,148.3 151.8,140.8 153.6,136.6 C149.4,138.3 141.8,142.3 140.0,150.0 Z"/>
<path d="M140.0,150.0 C148.5,152.0 156.2,146.6 160.0,143.3 C155.0,142.9 145.5,143.3 140.0,150.0 Z"/>
<path d="M140.0,150.0 C147.3,155.5 156.9,153.5 161.9,151.8 C157.3,149.4 148.1,145.8 140.0,150.0 Z"/>
<path d="M140.0,150.0 C143.5,157.6 152.2,160.3 156.9,161.2 C154.2,157.1 148.4,150.2 140.0,150.0 Z"/>
<path d="M140.0,150.0 C140.7,158.2 147.9,163.6 152.0,166.0 C150.8,161.4 147.7,153.0 140.0,150.0 Z"/>
<path d="M140.0,150.0 C136.6,157.0 139.9,164.8 142.1,168.7 C143.4,164.4 144.9,156.1 140.0,150.0 Z"/>
<circle cx="140.0" cy="150.0" r="3.6"/>
<path d="M100,415 C96,340 104,268 112,214"/>
<path d="M99.3,348.7 C109.7,341.7 114.4,328.3 116.3,321.0 C110.7,326.0 100.8,336.3 99.3,348.7 Z"/>
<path d="M99.3,348.7 L116.3,321.0" stroke-opacity="0.5"/>
<path d="M101.8,302.5 C101.7,292.3 94.5,283.1 90.4,278.6 C91.3,284.6 94.0,296.0 101.8,302.5 Z"/>
<path d="M101.8,302.5 L90.4,278.6" stroke-opacity="0.5"/>
<path d="M105.5,263.3 C115.5,257.7 120.8,245.8 123.0,239.4 C117.6,243.5 107.8,252.1 105.5,263.3 Z"/>
<path d="M105.5,263.3 L123.0,239.4" stroke-opacity="0.5"/>
<path d="M112.0,214.0 C107.6,208.9 100.2,208.9 96.3,209.3 C99.4,211.8 105.5,215.8 112.0,214.0 Z"/>
<path d="M112.0,214.0 C110.1,208.9 104.6,206.7 101.6,205.9 C103.1,208.6 106.6,213.5 112.0,214.0 Z"/>
<path d="M112.0,214.0 C112.8,208.4 108.8,203.7 106.4,201.5 C106.5,204.8 107.3,210.9 112.0,214.0 Z"/>
<path d="M112.0,214.0 C115.2,208.6 113.0,202.1 111.5,198.8 C110.2,202.2 108.5,208.8 112.0,214.0 Z"/>
<path d="M112.0,214.0 C116.7,210.8 117.5,204.6 117.5,201.3 C115.1,203.6 111.1,208.3 112.0,214.0 Z"/>
<path d="M112.0,214.0 C117.6,213.9 121.5,209.2 123.3,206.5 C120.1,207.1 114.3,208.9 112.0,214.0 Z"/>
<path d="M112.0,214.0 C118.4,216.2 124.7,212.6 127.9,210.3 C124.0,209.7 116.7,209.2 112.0,214.0 Z"/>
<path d="M112.0,214.0 C116.5,219.5 124.1,219.8 128.2,219.5 C125.1,216.8 118.9,212.4 112.0,214.0 Z"/>
<path d="M112.0,214.0 C113.3,219.4 118.6,222.3 121.6,223.5 C120.4,220.5 117.5,215.2 112.0,214.0 Z"/>
<path d="M112.0,214.0 C111.4,221.1 116.8,226.7 120.0,229.4 C119.6,225.2 118.2,217.6 112.0,214.0 Z"/>
<path d="M112.0,214.0 C108.2,220.1 110.4,227.6 112.0,231.4 C113.6,227.6 115.8,220.1 112.0,214.0 Z"/>
<path d="M112.0,214.0 C106.6,216.8 105.0,223.1 104.5,226.6 C107.3,224.5 112.1,220.1 112.0,214.0 Z"/>
<path d="M112.0,214.0 C105.6,214.3 101.3,219.8 99.3,222.9 C102.9,222.1 109.5,219.9 112.0,214.0 Z"/>
<path d="M112.0,214.0 C106.5,211.8 100.8,214.7 97.9,216.6 C101.3,217.3 107.6,218.0 112.0,214.0 Z"/>
<circle cx="112.0" cy="214.0" r="2.6"/>
</g></svg>