<svg xmlns="http://www.w3.org/2000/svg" viewBox="0 0 240 420" fill="none">
<g stroke="#000" stroke-width="1.1" stroke-linecap="round" stroke-linejoin="round">
<path d="M120,412 C76,300 156,168 104,14"/>
<path d="M108.1,363.8 C144.8,362.1 149.2,329.1 148.7,310.2 C130.3,314.8 99.8,328.0 108.1,363.8 Z"/>
<path d="M108.1,363.8 L148.7,310.2" stroke-opacity="0.6"/>
<path d="M109.7,361.6 L122.7,358.9" stroke-opacity="0.4"/>
<path d="M109.7,361.6 L108.8,348.4" stroke-opacity="0.4"/>
<path d="M118.5,350.1 L134.5,349.0" stroke-opacity="0.4"/>
<path d="M118.5,350.1 L115.2,334.3" stroke-opacity="0.4"/>
<path d="M127.5,338.2 L141.9,336.5" stroke-opacity="0.4"/>
<path d="M127.5,338.2 L125.2,323.8" stroke-opacity="0.4"/>
<path d="M135.5,327.6 L145.9,323.3" stroke-opacity="0.4"/>
<path d="M135.5,327.6 L136.9,316.4" stroke-opacity="0.4"/>
<path d="M106.5,315.6 C107.4,282.8 78.4,276.7 61.5,275.9 C64.4,292.6 74.1,320.6 106.5,315.6 Z"/>
<path d="M106.5,315.6 L61.5,275.9" stroke-opacity="0.6"/>
<path d="M104.7,314.0 L103.1,302.3" stroke-opacity="0.4"/>
<path d="M104.7,314.0 L92.8,314.0" stroke-opacity="0.4"/>
<path d="M95.0,305.5 L95.1,291.1" stroke-opacity="0.4"/>
<path d="M95.0,305.5 L80.7,307.4" stroke-opacity="0.4"/>
<path d="M85.0,296.7 L84.4,283.7" stroke-opacity="0.4"/>
<path d="M85.0,296.7 L72.1,297.7" stroke-opacity="0.4"/>
<path d="M76.1,288.8 L72.9,279.3" stroke-opacity="0.4"/>
<path d="M76.1,288.8 L66.2,286.9" stroke-opacity="0.4"/>
<path d="M110.6,265.3 C137.0,272.5 147.7,250.1 151.6,236.6 C137.5,235.7 112.9,238.0 110.6,265.3 Z"/>
<path d="M110.6,265.3 L151.6,236.6" stroke-opacity="0.6"/>
<path d="M112.3,264.2 L122.1,265.2" stroke-opacity="0.4"/>
<path d="M112.3,264.2 L114.7,254.5" stroke-opacity="0.4"/>
<path d="M121.1,258.0 L132.7,260.9" stroke-opacity="0.4"/>
<path d="M121.1,258.0 L122.3,246.0" stroke-opacity="0.4"/>
<path d="M130.2,251.6 L140.8,253.7" stroke-opacity="0.4"/>
<path d="M130.2,251.6 L131.9,240.9" stroke-opacity="0.4"/>
<path d="M138.3,245.9 L146.7,245.2" stroke-opacity="0.4"/>
<path d="M138.3,245.9 L141.8,238.3" stroke-opacity="0.4"/>
<path d="M116.9,212.7 C123.0,185.9 100.2,176.2 86.4,172.7 C86.1,186.9 89.4,211.5 116.9,212.7 Z"/>
<path d="M116.9,212.7 L86.4,172.7" stroke-opacity="0.6"/>
<path d="M115.7,211.1 L116.3,201.2" stroke-opacity="0.4"/>
<path d="M115.7,211.1 L105.9,209.1" stroke-opacity="0.4"/>
<path d="M109.1,202.5 L111.6,190.7" stroke-opacity="0.4"/>
<path d="M109.1,202.5 L97.1,201.8" stroke-opacity="0.4"/>
<path d="M102.3,193.7 L104.0,182.9" stroke-opacity="0.4"/>
<path d="M102.3,193.7 L91.5,192.4" stroke-opacity="0.4"/>
<path d="M96.3,185.7 L95.3,177.4" stroke-opacity="0.4"/>
<path d="M96.3,185.7 L88.5,182.5" stroke-opacity="0.4"/>
<path d="M121.6,157.9 C145.2,163.1 153.6,142.9 156.5,130.8 C144.0,130.6 122.4,133.8 121.6,157.9 Z"/>
<path d="M121.6,157.9 L156.5,130.8" stroke-opacity="0.6"/>
<path d="M123.0,156.9 L131.7,157.3" stroke-opacity="0.4"/>
<path d="M123.0,156.9 L124.7,148.3" stroke-opacity="0.4"/>
<path d="M130.5,151.0 L140.9,153.1" stroke-opacity="0.4"/>
<path d="M130.5,151.0 L131.1,140.5" stroke-opacity="0.4"/>
<path d="M138.3,145.0 L147.7,146.3" stroke-opacity="0.4"/>
<path d="M138.3,145.0 L139.3,135.5" stroke-opacity="0.4"/>
<path d="M145.2,139.6 L152.5,138.6" stroke-opacity="0.4"/>
<path d="M145.2,139.6 L147.9,132.8" stroke-opacity="0.4"/>
<path d="M121.2,100.9 C121.8,79.1 102.6,75.0 91.4,74.5 C93.3,85.6 99.7,104.2 121.2,100.9 Z"/>
<path d="M121.2,100.9 L91.4,74.5" stroke-opacity="0.6"/>
<path d="M120.0,99.8 L119.0,92.0" stroke-opacity="0.4"/>
<path d="M120.0,99.8 L112.1,99.8" stroke-opacity="0.4"/>
<path d="M113.6,94.1 L113.7,84.6" stroke-opacity="0.4"/>
<path d="M113.6,94.1 L104.1,95.4" stroke-opacity="0.4"/>
<path d="M107.0,88.3 L106.6,79.7" stroke-opacity="0.4"/>
<path d="M107.0,88.3 L98.4,89.0" stroke-opacity="0.4"/>
<path d="M101.1,83.1 L99.0,76.7" stroke-opacity="0.4"/>
<path d="M101.1,83.1 L94.5,81.8" stroke-opacity="0.4"/>
<path d="M112.0,41.5 C127.6,39.0 128.0,24.8 126.9,16.7 C119.2,19.5 106.8,26.5 112.0,41.5 Z"/>
<path d="M112.0,41.5 L126.9,16.7" stroke-opacity="0.6"/>
<path d="M112.6,40.5 L118.0,38.7" stroke-opacity="0.4"/>
<path d="M112.6,40.5 L111.6,34.9" stroke-opacity="0.4"/>
<path d="M115.8,35.2 L122.6,33.9" stroke-opacity="0.4"/>
<path d="M115.8,35.2 L113.6,28.6" stroke-opacity="0.4"/>
<path d="M119.1,29.6 L125.2,28.2" stroke-opacity="0.4"/>
<path d="M119.1,29.6 L117.5,23.6" stroke-opacity="0.4"/>
<path d="M122.0,24.7 L126.3,22.4" stroke-opacity="0.4"/>
<path d="M122.0,24.7 L122.1,19.9" stroke-opacity="0.4"/>
</g></svg>